<svg xmlns="http://www.w3.org/2000/svg" version="1.1" xmlns:xlink="http://www.w3.org/1999/xlink" xmlns:svgjs="http://svgjs.dev/svgjs" width="1440" height="560" preserveAspectRatio="none" viewBox="0 0 1440 560"><g mask="url(&quot;#SvgjsMask5486&quot;)" fill="none"><rect width="1440" height="560" x="0" y="0" fill="url(&quot;#SvgjsLinearGradient5487&quot;)"></rect><path d="M1440 0L893.9 0L1440 3.89z" fill="rgba(255, 255, 255, .1)"></path><path d="M893.9 0L1440 3.89L1440 312.81L739.3399999999999 0z" fill="rgba(255, 255, 255, .075)"></path><path d="M739.3399999999999 0L1440 312.81L1440 369.84000000000003L295.5799999999999 0z" fill="rgba(255, 255, 255, .05)"></path><path d="M295.5799999999999 0L1440 369.84000000000003L1440 410.28000000000003L181.26999999999992 0z" fill="rgba(255, 255, 255, .025)"></path><path d="M0 560L32.31 560L0 363.15999999999997z" fill="rgba(0, 0, 0, .1)"></path><path d="M0 363.15999999999997L32.31 560L472.88 560L0 344.40999999999997z" fill="rgba(0, 0, 0, .075)"></path><path d="M0 344.40999999999997L472.88 560L940.14 560L0 231.95999999999998z" fill="rgba(0, 0, 0, .05)"></path><path d="M0 231.95999999999998L940.14 560L1244.56 560L0 104.25999999999998z" fill="rgba(0, 0, 0, .025)"></path></g><defs><mask id="SvgjsMask5486"><rect width="1440" height="560" fill="#ffffff"></rect></mask><linearGradient x1="15.28%" y1="139.29%" x2="84.72%" y2="-39.29%" gradientUnits="userSpaceOnUse" id="SvgjsLinearGradient5487"><stop stop-color="rgba(14, 42, 71, 1)" offset="0"></stop><stop stop-color="rgba(114, 195, 255, 1)" offset="0"></stop></linearGradient></defs></svg>